<?xml version="1.0" encoding="UTF-8"?>
<svg version="1.1" xmlns="http://www.w3.org/2000/svg" width="128" height="128">
<path d="M0 0 C1.22880386 -0.01606293 2.45760773 -0.03212585 3.72364807 -0.04867554 C5.06828107 -0.06016809 6.41292189 -0.07077577 7.75756836 -0.08056641 C8.43738707 -0.08589008 9.11720577 -0.09121376 9.81762505 -0.09669876 C13.4212112 -0.12341498 17.02476302 -0.14278821 20.62841797 -0.15722656 C23.59553159 -0.1705211 26.56195014 -0.19829042 29.52880859 -0.23925781 C33.1244681 -0.28889775 36.71950137 -0.3133861 40.31548882 -0.32045364 C42.33498937 -0.33033364 44.35432479 -0.36450541 46.37355042 -0.39926147 C55.35769557 -0.37879159 62.42133508 0.92151293 69.17079163 7.1703186 C73.93715899 12.19048369 77.03491211 17.12197201 77.03491211 24.19287109 C79.01491211 24.68787109 79.01491211 24.68787109 81.03491211 25.19287109 C81.03491211 27.17287109 81.03491211 29.15287109 81.03491211 31.19287109 C79.71491211 31.52287109 78.39491211 31.85287109 77.03491211 32.19287109 C76.92276367 33.02818359 76.92276367 33.02818359 76.80834961 33.88037109 C75.53693282 41.25957443 72.67444317 46.33590132 66.74584961 50.98974609 C58.60960311 56.55525673 50.70171295 57.32409247 41.03491211 56.19287109 C34.86016965 54.31867345 30.20580061 51.05890767 26.03491211 46.19287109 C22.3180005 47.91091024 19.39745794 50.1908097 16.23022461 52.75537109 C9.23937631 57.33300842 1.07135697 56.98484439 -6.96508789 56.19287109 C-15.0878487 53.88282668 -20.93110745 48.54567944 -25.05883789 41.26318359 C-26.56758246 38.00820689 -26.96508789 35.8266543 -26.96508789 32.19287109 C-28.28508789 31.86287109 -29.60508789 31.53287109 -30.96508789 31.19287109 C-30.96508789 29.21287109 -30.96508789 27.23287109 -30.96508789 25.19287109 C-29.64508789 24.86287109 -28.32508789 24.53287109 -26.96508789 24.19287109 C-26.85293945 23.35755859 -26.85293945 23.35755859 -26.73852539 22.50537109 C-25.45655769 15.06493108 -22.66923992 9.84280878 -16.45336914 5.39599609 C-10.82956235 1.94782259 -6.65657139 0.0790919 0 0 Z " fill="#000000" transform="translate(38.965087890625,35.80712890625)"/>
</svg>
